<?xml version="1.0" encoding="utf-8"?>
<!-- Generator: Adobe Illustrator 23.0.3, SVG Export Plug-In . SVG Version: 6.00 Build 0)  -->
<svg version="1.1" id="Layer_1" xmlns="http://www.w3.org/2000/svg" xmlns:xlink="http://www.w3.org/1999/xlink" x="0px" y="0px"
	 viewBox="0 0 600 281.33" style="enable-background:new 0 0 600 281.33;" xml:space="preserve">
<style type="text/css">
	.st0{fill:#09061C;}
</style>
<path class="st0" d="M600,108.94c0,0-81.03-19.07-114.67,57.87c-2.03,4.65-3.81,9.4-5.33,14.24c-3.22-1.91-6.56-3.61-10-5.08
	c-27.18-12.94-58.12-15.6-87.11-7.49c-11.27,3.5-21.89,8.78-31.48,15.65v0.08c-1.25,0.83-2.58,1.83-3.83,2.83
	c-29.99,22.05-47.67,57.07-47.62,94.29c0.05-37.22-17.6-72.25-47.55-94.35c-1.41-1.08-2.83-2.17-4.17-3.08l-0.09-0.09
	c-9.5-6.82-20.05-12.05-31.23-15.49c-28.99-7.93-59.87-5.21-87.03,7.67c-3.43,1.5-6.77,3.19-10,5.08c-1.52-4.84-3.3-9.59-5.33-14.24
	C80.95,89.87,0,108.94,0,108.94l140.57-98.85L154,0.67L154.91,0c0.59,3.65,1.4,7.27,2.41,10.83v0.09
	c4.41,17.19,12.36,33.27,23.33,47.22C197,78.55,221.77,90.36,247.91,90.2V26.16c20.21,28.77,59.92,35.71,88.69,15.49
	c6.02-4.23,11.26-9.47,15.49-15.49V90.2c26.21,0.2,51.06-11.68,67.37-32.2c10.87-13.93,18.75-29.94,23.15-47.05v-0.09
	c1.01-3.56,1.82-7.17,2.41-10.83l0.91,0.67l13.39,9.39L600,108.94z"/>
</svg>
