<?xml version="1.0" encoding="utf-8"?>
<!-- Generator: Adobe Illustrator 23.0.3, SVG Export Plug-In . SVG Version: 6.00 Build 0)  -->
<svg version="1.1" id="Layer_1" xmlns="http://www.w3.org/2000/svg" xmlns:xlink="http://www.w3.org/1999/xlink" x="0px" y="0px"
	 viewBox="0 0 1500 810.47" style="enable-background:new 0 0 1500 810.47;" xml:space="preserve">
<style type="text/css">
	.st0{fill:#09061C;}
	.st1{fill:#F40BE9;}
</style>
<g>
	<path class="st0" d="M1125,136.17c0,0-101.28-23.83-143.33,72.34c-2.54,5.81-4.77,11.75-6.67,17.8c-4.02-2.39-8.2-4.51-12.5-6.35
		c-33.97-16.17-72.65-19.5-108.88-9.37c-14.08,4.37-27.37,10.98-39.35,19.57v0.1c-1.56,1.04-3.23,2.29-4.79,3.54
		c-37.49,27.56-59.59,71.33-59.52,117.86c0.07-46.53-22-90.31-59.43-117.94c-1.77-1.35-3.54-2.71-5.21-3.85l-0.11-0.11
		c-11.88-8.52-25.06-15.06-39.03-19.36c-36.24-9.91-74.84-6.51-108.78,9.59c-4.29,1.87-8.46,3.99-12.5,6.35
		c-1.9-6.05-4.13-11.99-6.67-17.8C476.18,112.33,375,136.17,375,136.17L550.71,12.62L567.5,0.83L568.64,0
		c0.74,4.57,1.75,9.08,3.02,13.53v0.11c5.52,21.49,15.45,41.59,29.17,59.03c20.42,25.51,51.39,40.28,84.07,40.08V32.7
		c25.26,35.96,74.9,44.63,110.86,19.37c7.53-5.29,14.08-11.84,19.37-19.37v80.05c32.77,0.24,63.82-14.6,84.21-40.25
		c13.59-17.41,23.44-37.43,28.94-58.82v-0.11c1.27-4.45,2.28-8.97,3.02-13.53l1.14,0.83l16.74,11.74L1125,136.17z"/>
	<g>
		<g>
			<path class="st1" d="M0,775.18V669.3h141.17v-35.29H0V386.96h300.04L194.05,492.84h-88.18v35.29h141.17v247.05H0z"/>
			<path class="st1" d="M282.34,775.18V457.54l105.88-105.88V669.3h70.59v105.88H282.34z"/>
			<path class="st1" d="M494.1,775.18V457.54l105.88-105.88V669.3h35.29V386.96h105.88v388.22H494.1z"/>
			<path class="st1" d="M1058.78,492.84h-35.29v282.34H917.61V492.84h-35.29v282.34H776.44V386.96h388.22v317.64l-105.88,105.88
				V492.84z"/>
			<path class="st1" d="M1199.96,775.18V669.3h141.17v-35.29h-141.17V386.96H1500l-105.99,105.88h-88.18v35.29H1447v247.05H1199.96z
				"/>
		</g>
	</g>
</g>
</svg>
