<?xml version="1.0" encoding="utf-8"?>
<!-- Generator: Adobe Illustrator 23.0.3, SVG Export Plug-In . SVG Version: 6.00 Build 0)  -->
<svg version="1.1" id="Layer_1" xmlns="http://www.w3.org/2000/svg" xmlns:xlink="http://www.w3.org/1999/xlink" x="0px" y="0px"
	 viewBox="0 0 1200 367.04" style="enable-background:new 0 0 1200 367.04;" xml:space="preserve">
<style type="text/css">
	.st0{fill:#F40BE9;}
</style>
<g>
	<g>
		<path class="st0" d="M0,338.81v-84.7h112.94v-28.23H0V28.23h240.04l-84.79,84.7H84.7v28.23h112.94v197.64H0z"/>
		<path class="st0" d="M225.87,338.81V84.7L310.58,0v254.11h56.47v84.7H225.87z"/>
		<path class="st0" d="M395.28,338.81V84.7L479.98,0v254.11h28.23V28.23h84.7v310.58H395.28z"/>
		<path class="st0" d="M847.03,112.94h-28.23v225.87h-84.7V112.94h-28.23v225.87h-84.7V28.23h310.58v254.11l-84.7,84.7V112.94z"/>
		<path class="st0" d="M959.96,338.81v-84.7h112.94v-28.23H959.96V28.23H1200l-84.79,84.7h-70.54v28.23h112.94v197.64H959.96z"/>
	</g>
</g>
</svg>
